<svg width="50" height="51" viewBox="0 0 50 51" xmlns="http://www.w3.org/2000/svg">
<path d="M48.3726 18.8765C48.0123 19.9061 47.4982 20.8769 46.8526 21.7638C47.2976 23.3504 47.5582 25.0079 47.6051 26.7147H41.5721L39.7465 32.9741C39.5767 33.8926 39.3787 34.7944 39.1305 35.6625C39.078 35.6519 39.0225 35.6458 38.9686 35.6358L38.6502 36.7248C38.6986 36.7344 38.7485 36.7397 38.7961 36.7493C37.9754 39.2208 36.8427 41.4367 35.4742 43.297C34.1852 42.9462 32.8576 42.6634 31.4977 42.4474C32.104 40.5289 32.5944 38.3328 32.9416 35.9251C33.7214 36.0027 34.4848 36.1016 35.2481 36.2012L34.9035 35.0236C34.301 34.9493 33.7038 34.8664 33.0927 34.8048C33.2752 33.3111 33.4001 31.7411 33.4698 30.1203L32.3334 26.2284C32.3368 26.3928 32.3424 26.5504 32.3443 26.7144L25.5937 26.7137V20.1433C25.7961 20.1419 25.9945 20.1312 26.1973 20.128C26.0177 19.7658 25.8647 19.3919 25.7249 19.012C25.6806 19.0124 25.6379 19.0152 25.5937 19.0156V18.6459C25.2476 17.5872 25.062 16.4723 25.062 15.3304C25.062 13.9778 25.326 12.685 25.786 11.4808C25.7211 11.4822 25.6581 11.4886 25.594 11.4889L25.5944 5.83037C25.9513 5.83962 26.3083 5.85528 26.6614 5.88018C27.2006 6.28396 27.7296 6.88907 28.2369 7.65854C28.5057 7.3807 28.7873 7.11745 29.0839 6.86664C28.8878 6.58311 28.6883 6.31416 28.4825 6.07154C28.8446 6.12455 29.2065 6.18538 29.563 6.2551C29.6249 6.28321 29.6856 6.31629 29.7475 6.34475C30.6612 5.67701 31.6762 5.1345 32.7698 4.73679C30.3219 3.97548 27.712 3.55823 24.9997 3.55823C21.4608 3.55823 18.095 4.26368 15.0406 5.52729C15.0695 5.78877 15.0853 6.05416 15.0853 6.32346C15.0853 6.93784 14.9889 7.5369 14.8389 8.11858C15.4227 7.83861 16.0192 7.57713 16.6311 7.34482C15.7215 8.10079 14.8696 8.97701 14.0846 9.95567C13.7985 10.4523 13.466 10.9222 13.073 11.3473C11.8395 13.172 10.8084 15.2677 10.047 17.5779C9.78943 17.5253 9.54348 17.4627 9.28966 17.4075L8.97209 18.4957C9.22142 18.5498 9.46175 18.6121 9.71333 18.664C8.99834 21.1631 8.58516 23.8761 8.53716 26.715L2.39354 26.7157C2.48277 23.4414 3.35149 20.3499 4.82688 17.5939L3.9323 14.5331C1.4476 18.2172 0 22.5894 0 27.2795C0 40.3592 11.2136 51.0001 24.9995 51.0001C38.7854 51.0001 50 40.3601 50 27.2795C50 24.3215 49.4204 21.49 48.3724 18.8763L48.3726 18.8765ZM20.435 6.25579C20.792 6.18607 21.1519 6.12523 21.5156 6.07116C20.5119 7.25792 19.6143 8.94493 18.8645 11.0275C17.6419 10.8393 16.4439 10.5931 15.2787 10.2932C16.7833 8.50128 18.5289 7.11635 20.4351 6.25581L20.435 6.25579ZM14.5221 11.2623C15.8115 11.612 17.1398 11.8962 18.4997 12.1129C17.8923 14.0289 17.4026 16.226 17.0558 18.6341C15.0454 18.4352 13.089 18.1588 11.2009 17.8095C12.0209 15.3377 13.1539 13.1228 14.5221 11.2622V11.2623ZM18.499 42.4462C17.1395 42.6636 15.8119 42.9464 14.5221 43.2968C13.1535 41.4369 12.0206 39.2199 11.2002 36.7464C13.0872 36.3959 15.0458 36.1245 17.0559 35.9246C17.4031 38.332 17.8924 40.5291 18.499 42.4461V42.4462ZM10.8676 18.8968C12.8154 19.2604 14.8328 19.5486 16.9059 19.7542C16.6378 21.9381 16.4844 24.2733 16.4646 26.7152H9.72518C9.77317 23.9546 10.1736 21.3181 10.8676 18.8968L10.8676 18.8968ZM16.4645 27.8454C16.4848 30.2872 16.6381 32.6227 16.9058 34.8049C14.8336 35.012 12.8138 35.2955 10.8672 35.6601C10.1732 33.2396 9.7735 30.6045 9.72551 27.8453L16.4645 27.8454ZM2.39355 27.8454H8.53603C8.58402 30.6839 8.9972 33.3958 9.71335 35.8953C8.04489 36.2386 6.43575 36.6388 4.89475 37.0974C3.3767 34.3104 2.48474 31.1717 2.39355 27.8454V27.8454ZM5.47919 38.1055C6.94292 37.6797 8.46779 37.3033 10.0462 36.9813C10.8654 39.4666 11.9865 41.7178 13.3475 43.6342C12.6498 43.8505 11.9682 44.0892 11.2981 44.3436C8.95662 42.6467 6.97632 40.5275 5.47919 38.1055V38.1055ZM12.4405 45.1216C12.9748 44.9324 13.5199 44.7545 14.073 44.5916C14.8622 45.5762 15.7178 46.4546 16.6304 47.2149C15.1509 46.6535 13.746 45.9524 12.4406 45.1217L12.4405 45.1216ZM20.4351 48.3049C18.529 47.4439 16.7841 46.0579 15.278 44.266C16.4444 43.9647 17.6408 43.7199 18.8638 43.5317C19.614 45.6146 20.5116 47.303 21.5153 48.4895C21.152 48.4347 20.7921 48.375 20.4351 48.3049V48.3049ZM24.4042 48.73C24.0458 48.7207 23.6892 48.7033 23.3356 48.6795C22.1418 47.783 20.9938 45.9519 20.0433 43.3682C21.4722 43.1917 22.9295 43.0917 24.4042 43.0697V48.73ZM24.4042 41.9408C22.8028 41.9647 21.2195 42.075 19.6692 42.2745C19.0776 40.4289 18.5841 38.2614 18.2336 35.8234C20.2488 35.654 22.3079 35.5587 24.4042 35.5438V41.9408ZM24.4042 34.4149C22.2574 34.4288 20.1476 34.5298 18.0847 34.702C17.826 32.5896 17.6742 30.2946 17.6543 27.8435H24.4042L24.4042 34.4149ZM24.4042 26.7154H17.654C17.6738 24.2643 17.826 21.9672 18.0844 19.8559C20.1488 20.0309 22.2584 20.1291 24.4038 20.1444L24.4042 26.7154ZM24.4042 19.016C22.3083 19.0007 20.2488 18.9046 18.2336 18.736C18.5841 16.298 19.0776 14.1301 19.6692 12.2848C21.2195 12.4848 22.8028 12.5954 24.4042 12.6178V19.016ZM24.4042 11.4891C22.9292 11.4677 21.4722 11.3677 20.0433 11.1916C20.9927 8.60639 22.1418 6.77612 23.3356 5.88034C23.6892 5.85544 24.0457 5.83907 24.4042 5.83053V11.4891ZM25.5935 27.8456H32.3434C32.3235 30.297 32.172 32.5927 31.9122 34.7037C29.8482 34.5305 27.7381 34.4305 25.5935 34.4159L25.5935 27.8456ZM25.5935 35.544C27.6882 35.5589 29.7485 35.6557 31.7633 35.8236C31.4124 38.2616 30.9201 40.4287 30.327 42.2747C28.7767 42.0745 27.193 41.9652 25.5916 41.941L25.592 35.544L25.5935 35.544ZM26.6617 48.6792C26.3081 48.7031 25.9523 48.7205 25.5943 48.7298V43.0698C27.0681 43.0919 28.5251 43.1919 29.9551 43.3683C29.0039 45.9521 27.8555 47.7825 26.6618 48.6792H26.6617ZM28.482 48.4886C29.4857 47.3022 30.3833 45.6131 31.1331 43.5312C32.3557 43.7204 33.5541 43.9662 34.7189 44.2665C33.2151 46.0581 31.4675 47.4426 29.5625 48.3035C29.2055 48.3747 28.8437 48.4344 28.4819 48.4885L28.482 48.4886ZM33.3673 47.2139C34.2784 46.4544 35.1329 45.5767 35.9213 44.5921C36.4743 44.7564 37.0194 44.9329 37.5549 45.1221C36.2493 45.9532 34.8446 46.6543 33.3673 47.2139V47.2139ZM38.6984 44.3441C38.0299 44.0879 37.346 43.851 36.649 43.6347C38.01 41.7183 39.1306 39.4671 39.9518 36.9801C41.531 37.3035 43.0543 37.6784 44.5196 38.1056C43.0214 40.5272 41.0402 42.6478 38.6984 44.3441V44.3441ZM45.1041 37.0971C43.562 36.64 41.9528 36.2387 40.2843 35.8951C40.9993 33.3956 41.4137 30.6837 41.4609 27.8451H47.6045C47.5138 31.1713 46.6226 34.3101 45.1041 37.0971Z" fill="white"/>
<path d="M37.0265 5.29883C31.1821 5.29883 26.4503 9.7884 26.4503 15.3304C26.4503 19.6389 29.3173 23.3027 33.334 24.7254L37.0267 37.3589L40.7134 24.7254C44.7323 23.3024 47.6005 19.6386 47.6005 15.3304C47.6009 9.78822 42.8633 5.29883 37.0271 5.29883H37.0265ZM37.0265 19.3412C34.6922 19.3412 32.8003 17.544 32.8003 15.3305C32.8003 13.116 34.693 11.3212 37.0265 11.3212C39.3604 11.3212 41.2498 13.116 41.2498 15.3305C41.2498 17.5433 39.3608 19.3412 37.0265 19.3412V19.3412Z" fill="white"/>
<path d="M7.03208 0C3.348 0 0.365448 2.83033 0.365448 6.32348C0.365448 9.03852 2.1726 11.3492 4.70413 12.2456L7.03208 20.2098L9.35552 12.2456C11.8893 11.3491 13.6968 9.03888 13.6968 6.32348C13.6972 2.83042 10.7123 0 7.03199 0L7.03208 0ZM7.03208 8.85173C5.56087 8.85173 4.36704 7.71934 4.36704 6.32376C4.36704 4.92781 5.56087 3.79688 7.03208 3.79688C8.50253 3.79688 9.69482 4.92817 9.69482 6.32376C9.69482 7.71934 8.5033 8.85173 7.03208 8.85173Z" fill="white"/>
</svg>
